<?xml version="1.0" encoding="UTF-8" standalone="no"?>
<svg
   version="1.1"
   width="151"
   height="139">
  <path
     d="M 78.5,83.500004 30.5,94.250002 15,89.5 l 13,6 -7.5,14 5,3.5 -3,-4 8,-13.250002 48,-10.749994 z"
     fill="#000000" />
  <path
     d="m 24.75,80.25 c -1.221676,-1.178198 -7.195151,1.196638 -11.25,7.25 -4.0548487,6.053362 -4.9497633,12.5 -3,12.5 1.949764,0 2.912226,-5.764492 6,-10 3.087774,-4.235508 9.471676,-8.571802 8.25,-9.75 z"
     fill="#dc8f9a" />
  <path
     d="M 125.91681,63.621718 116.5,70 l -33,11 -5,1 0,4.5 L 84,83 127.6088,78.248996 134,80 145,71 Z"
     fill="#2f2422" />
  <path
     d="m 151,65 0,56 -5.5,10.5 -26.91291,2.20598 L 108,114.5 Z"
     fill="#000000" />
  <path
     d="m 129.5,76 -5.5,-19 -9,-2.5 8,-3.5 0,-2 6,0 0,-3 2,0 0,3 1.5,-2 1.5,1 -2,2.5 19,14.5 -1,6 -21.35791,35.47328 -10.055,27.2327 L 54,139 l -1,-10 2,5 4,0 19,-7 -2,-1 16,-6 -38,-1 0,-9.5 1.5,3.5 16.5,1 23,-5.5 16,-10.5 z"
     fill="#1d1817" />
  <circle
     cx="126.5"
     cy="51.5"
     r="0.5"
     fill="#d9d7b8" />
  <path
     d="M 134,80 130,93 108,114.5 143.5,99.999996 149,78.5 l 1,-7.5 -5,0 z"
     fill="#3b302c" />
</svg>
