<?xml version="1.0" encoding="UTF-8" standalone="no"?>
<svg
    version="1.1"
    width="151"
    height="139">
    <path
      d="M 74,60.75 22.5,54 9.5,43.5 20.6875,54.6875 7.5,65.5 l 5,5.5 -2,-5.5 12,-9.5 51.5,6.25 z"
      fill="#000000" />
    <path
      d="M 21.761027,38.488969 C 21.313953,36.820467 14.520627,38.235314 8,42 c -6.3098132,3.642972 -8.88332673,9.495364 -7,10 1.9301571,0.517184 5.4606821,-4.379224 10,-7 4.636319,-2.67678 11.200306,-4.871618 10.761027,-6.511031 z"
      fill="#bd7781" />
    <path
      d="M 124.777,59.684176 114,62 78,61 l -4,-0.5 -1.5,4 6.5,-1 50.5,12.5 4.5,4 11,-9 z"
      fill="#2f2422" />
    <path
      d="m 151,65 0,56 -5.5,10.5 -26.91291,2.20598 L 108,114.5 Z"
      fill="#000000" />
    <path
      d="m 129.5,76 -5.5,-19 -9,-2.5 8,-3.5 0,-2 6,0 0,-3 2,0 0,3 1.5,-2 1.5,1 -2,2.5 19,14.5 -1,6 -21.35791,35.47328 -10.055,27.2327 L 54,139 l -1,-10 2,5 4,0 19,-7 -2,-1 16,-6 -38,-1 0,-9.5 1.5,3.5 16.5,1 23,-5.5 16,-10.5 z"
      fill="#1d1817" />
    <circle
      cy="51.5"
      cx="126.5"
      r="0.5"
      fill="#d9d7b8" />
    <path
      d="M 134,80 130,93 108,114.5 143.5,99.999996 149,78.5 l 1,-7.5 -5,0 z"
      fill="#3b302c" />
</svg>
