<?xml version="1.0" encoding="UTF-8" standalone="no"?>
<svg
   version="1.1"
   width="108"
   height="102">
  <path
     d="M 60.5,9.5 51,5 l 1,-2 -8,0 1,-3 -2,0 0,3 -2.5,-2 -1,2 2,1.5 L 21,21 0,71 0,83.5 6.5,95 107,102 108,90.5 105,97 81,89.5 84,87.5 65.5,81 107,80.5 107,69 105,73.5 86,74.5 64,69 44.5,57.5 l 0,-26 6,-18.5 z"
     fill="#f1ecd3" />
  <path
     d="M 46.5,65.5 26,52 50.5,13 60.5,9.5 51,5 l 1,-2 -8,0 1,-3 -2,0 0,3 -2.5,-2 -1,2 2,1.5 L 21,21 0,71 0,83.5 6.5,95 37.157425,97.135343 21.537004,63.908502 48,72.5 Z"
     fill="#ebe7c7" />
  <path
     d="M 48,72.5 46.5,65.5 26,52 50.5,13 60.5,9.5 51,5 l 1,-2 -8,0 1,-3 -2,0 0,3 -2.5,-2 -1,2 2,1.5 L 21,21 5.2053702,58.606261 Z"
     fill="#e9e3c2" />
  <circle
     cy="6.5"
     cx="47"
     r="0.5"
     fill="#000000" />
</svg>
